<svg width="128" height="128" viewBox="0 0 128 128" fill="none" xmlns="http://www.w3.org/2000/svg">
<g clip-path="url(#clip0_31_25)">
<line x1="123.868" y1="52.0197" x2="106.227" y2="55.5991" stroke="black" stroke-width="5" stroke-linecap="round"/>
<line x1="124.111" y1="73.9868" x2="106.471" y2="77.5661" stroke="black" stroke-width="5" stroke-linecap="round"/>
<path d="M26 40C26 29 33 23 44 23H84C95 23 102 29 102 40V88C102 102 93 111 80 111H48C35 111 26 102 26 88V40Z" fill="white" stroke="black" stroke-width="6" stroke-linecap="round" stroke-linejoin="round"/>
<path d="M44 43.5999C48.1974 43.5999 51.6 40.1973 51.6 35.9999C51.6 31.8025 48.1974 28.3999 44 28.3999C39.8027 28.3999 36.4 31.8025 36.4 35.9999C36.4 40.1973 39.8027 43.5999 44 43.5999Z" fill="white" stroke="black" stroke-width="5"/>
<path d="M84 43.5999C88.1974 43.5999 91.6 40.1973 91.6 35.9999C91.6 31.8025 88.1974 28.3999 84 28.3999C79.8027 28.3999 76.4 31.8025 76.4 35.9999C76.4 40.1973 79.8027 43.5999 84 43.5999Z" fill="white" stroke="black" stroke-width="5"/>
<path d="M46.8892 98V51.4545H65.5256C68.9498 51.4545 71.8059 51.9621 74.0938 52.9773C76.3816 53.9924 78.1013 55.4015 79.2528 57.2045C80.4044 58.9924 80.9801 61.053 80.9801 63.3864C80.9801 65.2045 80.6165 66.803 79.8892 68.1818C79.1619 69.5455 78.1619 70.6667 76.8892 71.5455C75.6316 72.4091 74.1922 73.0227 72.571 73.3864V73.8409C74.3438 73.9167 76.0028 74.4167 77.5483 75.3409C79.1089 76.2652 80.3741 77.5606 81.3438 79.2273C82.3134 80.8788 82.7983 82.8485 82.7983 85.1364C82.7983 87.6061 82.1847 89.8106 80.9574 91.75C79.7453 93.6742 77.9498 95.197 75.571 96.3182C73.1922 97.4394 70.2604 98 66.7756 98H46.8892ZM56.7301 89.9545H64.7528C67.4953 89.9545 69.4953 89.4318 70.7528 88.3864C72.0104 87.3258 72.6392 85.9167 72.6392 84.1591C72.6392 82.8712 72.3286 81.7348 71.7074 80.75C71.0862 79.7652 70.1998 78.9924 69.0483 78.4318C67.9119 77.8712 66.5559 77.5909 64.9801 77.5909H56.7301V89.9545ZM56.7301 70.9318H64.0256C65.3741 70.9318 66.571 70.697 67.6165 70.2273C68.6771 69.7424 69.5104 69.0606 70.1165 68.1818C70.7377 67.303 71.0483 66.25 71.0483 65.0227C71.0483 63.3409 70.4498 61.9848 69.2528 60.9545C68.071 59.9242 66.3892 59.4091 64.2074 59.4091H56.7301V70.9318Z" fill="#E3B54A"/>
</g>
<defs>
<clipPath id="clip0_31_25">
<rect width="128" height="128" fill="white"/>
</clipPath>
</defs>
</svg>
